<svg xmlns="http://www.w3.org/2000/svg" viewBox="0 0 1600 1200" width="1600" height="1200">
  <defs>
    <style>
      .poly { fill: rgba(15,23,42,0.035); stroke: rgba(15,23,42,0.15); stroke-width: 1.2; stroke-linejoin: round; }
    </style>
  </defs>

  <!-- Left edge polygons (x: 0-200) -->
  <polygon class="poly" points="0,30 90,10 140,95 30,120"/>
  <polygon class="poly" points="0,180 130,150 100,280 10,260"/>
  <polygon class="poly" points="0,330 80,300 150,400 40,450"/>
  <polygon class="poly" points="0,480 110,440 190,530 70,570"/>
  <polygon class="poly" points="0,630 140,590 120,720 20,690"/>
  <polygon class="poly" points="0,780 100,750 170,840 60,870"/>
  <polygon class="poly" points="0,930 120,890 190,980 50,1020"/>
  <polygon class="poly" points="0,1080 90,1050 160,1140 20,1170"/>
  <polygon class="poly" points="0,60 50,30 100,75 30,110"/>
  <polygon class="poly" points="0,150 60,130 110,190 20,220"/>
  <polygon class="poly" points="0,440 70,410 130,480 40,510"/>
  <polygon class="poly" points="0,710 60,680 100,740 30,770"/>
  <polygon class="poly" points="0,550 50,520 80,570 20,590"/>
  <polygon class="poly" points="0,880 70,850 130,910 40,940"/>
  <polygon class="poly" points="0,300 50,270 80,320 20,340"/>
  <polygon class="poly" points="0,820 40,800 70,840 20,860"/>
  <polygon class="poly" points="0,980 50,960 90,1000 30,1020"/>
  <polygon class="poly" points="0,1120 60,1100 100,1140 30,1160"/>
  <polygon class="poly" points="0,10 40,0 70,40 20,60"/>
  <polygon class="poly" points="0,120 35,100 65,140 15,160"/>
  <polygon class="poly" points="0,270 45,250 75,290 15,310"/>
  <polygon class="poly" points="0,400 55,380 85,420 25,440"/>
  <polygon class="poly" points="0,670 35,650 65,690 15,710"/>
  <polygon class="poly" points="0,800 45,780 75,820 15,840"/>
  <polygon class="poly" points="0,960 55,940 85,980 25,1000"/>
  <polygon class="poly" points="0,1070 40,1050 70,1090 20,1110"/>
  <polygon class="poly" points="0,1180 50,1160 80,1200 20,1190"/>

  <!-- Right edge polygons (x: 1400-1600) -->
  <polygon class="poly" points="1600,20 1510,0 1450,90 1540,110"/>
  <polygon class="poly" points="1600,160 1460,130 1430,250 1520,220 1550,200"/>
  <polygon class="poly" points="1600,320 1500,350 1440,450 1550,420"/>
  <polygon class="poly" points="1600,480 1470,450 1420,560 1510,580 1550,530"/>
  <polygon class="poly" points="1600,640 1480,670 1440,780 1530,750 1560,700"/>
  <polygon class="poly" points="1600,800 1490,830 1440,930 1550,900"/>
  <polygon class="poly" points="1600,970 1500,990 1450,1090 1540,1060 1570,1020"/>
  <polygon class="poly" points="1600,1130 1510,1150 1460,1200 1550,1180"/>
  <polygon class="poly" points="1600,80 1540,60 1490,110 1550,140"/>
  <polygon class="poly" points="1600,230 1530,210 1480,260 1550,290"/>
  <polygon class="poly" points="1600,400 1540,380 1490,430 1550,460"/>
  <polygon class="poly" points="1600,560 1530,540 1480,590 1550,620"/>
  <polygon class="poly" points="1600,720 1540,700 1490,750 1550,780"/>
  <polygon class="poly" points="1600,890 1530,870 1480,920 1550,950"/>
  <polygon class="poly" points="1600,1050 1540,1030 1490,1080 1550,1110"/>
  <polygon class="poly" points="1600,30 1550,15 1510,50 1560,75"/>
  <polygon class="poly" points="1600,120 1550,100 1500,140 1560,170"/>
  <polygon class="poly" points="1600,290 1540,270 1490,320 1550,350"/>
  <polygon class="poly" points="1600,380 1530,360 1480,410 1550,440"/>
  <polygon class="poly" points="1600,600 1550,580 1500,630 1560,660"/>
  <polygon class="poly" points="1600,770 1540,750 1490,800 1550,830"/>
  <polygon class="poly" points="1600,930 1530,910 1480,960 1550,990"/>
  <polygon class="poly" points="1600,1090 1540,1070 1490,1120 1550,1150"/>
  <polygon class="poly" points="1600,0 1550,10 1510,30 1560,50"/>
  <polygon class="poly" points="1600,70 1540,50 1490,90 1550,120"/>
  <polygon class="poly" points="1600,450 1550,430 1500,480 1560,510"/>
  <polygon class="poly" points="1600,680 1550,660 1490,700 1560,730"/>
  <polygon class="poly" points="1600,840 1540,820 1490,870 1550,900"/>
  <polygon class="poly" points="1600,1020 1550,1000 1490,1040 1560,1070"/>
  <polygon class="poly" points="1600,1170 1550,1150 1490,1190 1560,1200"/>
</svg>
